<svg width="16" height="16" viewBox="0 0 16 16" fill="none" xmlns="http://www.w3.org/2000/svg">
<path d="M9.25293 1.88235C8.95259 2.4015 8.78029 3.00411 8.78027 3.647C8.78027 4.38951 9.00974 5.07854 9.40137 5.647H6.58789V6.58841H10.3525V6.58353C10.9127 6.95764 11.5854 7.17624 12.3096 7.1763C12.6088 7.1763 12.8993 7.138 13.1768 7.0679V14.5884C13.1767 15.368 12.5443 15.9995 11.7646 15.9995H2.35254C1.57308 15.9993 0.941499 15.3679 0.941406 14.5884V9.41165H2.35254C4.17181 9.41165 5.64743 7.93697 5.64746 6.11771V1.88235H9.25293ZM3.76465 12.2349H10.3525V11.2945H3.76465V12.2349ZM6.58789 9.41165H10.3525V8.47025H6.58789V9.41165ZM0.941406 6.11771C0.941437 6.89724 1.57305 7.5296 2.35254 7.52982C3.13222 7.52982 3.76462 6.89738 3.76465 6.11771V3.29446C3.76465 3.03457 3.55384 2.82376 3.29395 2.82376C3.03413 2.82385 2.82324 3.03462 2.82324 3.29446V6.58841H1.88281V3.29446C1.88281 2.51483 2.51433 1.88245 3.29395 1.88235C4.07364 1.88235 4.70605 2.51477 4.70605 3.29446V6.11771C4.70602 7.41717 3.65201 8.47025 2.35254 8.47025C1.05325 8.47003 3.10332e-05 7.41704 0 6.11771V1.88235H0.941406V6.11771Z" fill="#051438"/>
<path fill-rule="evenodd" clip-rule="evenodd" d="M9.66281 3.64706C9.66281 2.18513 10.8479 1 12.3099 1C13.7718 1 14.9569 2.18513 14.9569 3.64706C14.9569 5.10899 13.7718 6.29412 12.3099 6.29412C10.8479 6.29412 9.66281 5.10899 9.66281 3.64706ZM12.1587 4.78023L13.683 2.87494L13.4074 2.65445L12.1081 4.27858L11.1876 3.51148L10.9616 3.78262L12.1587 4.78023Z" fill="#27AE60"/>
</svg>
