<svg width="10" height="10" viewBox="0 0 10 10" fill="none" xmlns="http://www.w3.org/2000/svg">
<g clip-path="url(#clip0_2_4593)">
<path d="M3.96541 3.34221C3.98624 3.28414 4.04465 3.24836 4.10586 3.25637C4.16705 3.26433 4.21441 3.31384 4.21966 3.37532L4.42938 5.82553L4.82209 4.41C4.83816 4.35212 4.89119 4.31237 4.95147 4.31388C5.01148 4.3152 5.06296 4.35711 5.07646 4.41561L5.29515 5.36434L5.66854 3.79553C5.68311 3.73415 5.73943 3.69212 5.80237 3.69481C5.86538 3.6978 5.91739 3.74523 5.92616 3.80769L6.20482 5.79431L6.32974 5.39055C6.34676 5.3356 6.39759 5.29814 6.45511 5.29814H9.41032V4.62167C9.41032 3.9972 8.90403 3.49079 8.2792 3.49079H6.48376V1.69531C6.48376 1.07055 5.9775 0.564331 5.35279 0.564331H4.69955H4.5965C3.97193 0.564331 3.46538 1.07057 3.46538 1.69531V3.49077H1.66984C1.04559 3.49077 0.539062 3.99718 0.539062 4.62164V5.31255H3.25839L3.96541 3.34221Z" fill="white"/>
<path d="M6.28218 6.43324C6.26398 6.49193 6.20737 6.53025 6.14628 6.52526C6.08499 6.52027 6.03536 6.47354 6.02685 6.41264L5.76318 4.53288L5.42111 5.97015C5.40703 6.02928 5.35419 6.07102 5.29345 6.07102C5.29331 6.07102 5.29314 6.07102 5.29297 6.07102C5.23203 6.07078 5.17925 6.02866 5.16556 5.96924L4.93719 4.97841L4.48767 6.59865C4.47175 6.65588 4.41968 6.69477 4.36129 6.69477C4.35724 6.69477 4.35317 6.69458 4.34907 6.69425C4.28579 6.68835 4.23585 6.63804 4.23045 6.57475L4.0098 3.99664L3.47466 5.48815C3.45596 5.54033 3.40655 5.57507 3.35114 5.57507H0.556885C0.650154 6.10569 1.11314 6.50898 1.67024 6.50898H3.46577V8.30449C3.46577 8.92924 3.97232 9.4357 4.59689 9.4357H4.69994H5.35318C5.97789 9.4357 6.48415 8.92922 6.48415 8.30449V6.50898H8.27959C8.84225 6.50898 9.30857 6.09838 9.39584 5.56063H6.55222L6.28218 6.43324Z" fill="white"/>
<path d="M9.86882 5.29814H9.41068H6.45547C6.39795 5.29814 6.3471 5.33561 6.3301 5.39054L6.20518 5.79431L5.92653 3.80768C5.91775 3.74522 5.86575 3.6978 5.80274 3.6948C5.7398 3.69211 5.68348 3.73415 5.6689 3.79553L5.29551 5.36434L5.07682 4.41561C5.06332 4.3571 5.01184 4.31519 4.95183 4.31387C4.89155 4.31236 4.83852 4.35214 4.82245 4.41L4.42974 5.82553L4.22002 3.37531C4.21477 3.31384 4.16741 3.2643 4.10623 3.25636C4.04499 3.24836 3.98661 3.28413 3.96577 3.3422L3.2588 5.31257H0.539449H0.131248C0.0587666 5.31257 0 5.37134 0 5.44384C0 5.5163 0.0587426 5.57507 0.131248 5.57507H0.55688H3.35108C3.40652 5.57507 3.45591 5.54032 3.47461 5.48815L4.00974 3.99664L4.2304 6.57474C4.23582 6.63804 4.28576 6.68835 4.34901 6.69424C4.35311 6.69458 4.35719 6.69477 4.36124 6.69477C4.41965 6.69477 4.4717 6.65588 4.48762 6.59865L4.93713 4.97839L5.16551 5.96922C5.1792 6.02865 5.23197 6.07076 5.29292 6.071C5.29309 6.071 5.29326 6.071 5.2934 6.071C5.35413 6.071 5.40698 6.02928 5.42105 5.97013L5.76313 4.53288L6.0268 6.41264C6.03531 6.47354 6.08496 6.52029 6.14622 6.52526C6.20732 6.53024 6.26392 6.49193 6.28212 6.43323L6.55217 5.56058H9.39577H9.8688C9.94126 5.56058 10 5.50184 10 5.42936C10 5.35688 9.94131 5.29814 9.86882 5.29814Z" fill="#A22CFF"/>
</g>
<defs>
<clipPath id="clip0_2_4593">
<rect width="10" height="10" fill="white"/>
</clipPath>
</defs>
</svg>
